<svg width="180px" height="180px" viewBox="0 0 176.38889 176.3889" version="1.1" id="svg1" xml:space="preserve" xmlns="http://www.w3.org/2000/svg" xmlns:svg="http://www.w3.org/2000/svg">
  <style>
    .code-symbol {
      fill: #1c274c;
    }

    @media (prefers-color-scheme: dark) {
      .code-symbol {
        fill: #dddddd;
      }
    }
  </style>
  <g transform="translate(-16.978497,-60.305556)">
    <g style="fill:none" transform="matrix(8.8194444,0,0,8.8194444,-0.66039162,42.666667)">
      <path
        class="code-symbol"
        fill-rule="evenodd"
        clip-rule="evenodd"
        d="M 3.46447,3.46447 C 2,4.92893 2,7.28595 2,12 2,16.714 2,19.0711 3.46447,20.5355 4.92893,22 7.28595,22 12,22 c 4.714,0 7.0711,0 8.5355,-1.4645 C 22,19.0711 22,16.714 22,12 22,7.28595 22,4.92893 20.5355,3.46447 19.0711,2 16.714,2 12,2 7.28595,2 4.92893,2 3.46447,3.46447 Z M 13.4881,6.44591 c 0.4001,0.1072 0.6375,0.51846 0.5303,0.91856 L 11.4302,17.0237 C 11.323,17.4238 10.9117,17.6613 10.5116,17.5541 10.1115,17.4468 9.8741,17.0356 9.98131,16.6355 L 12.5695,6.97624 C 12.6767,6.57614 13.088,6.3387 13.4881,6.44591 Z m 1.4816,2.02376 c 0.2929,-0.29289 0.7677,-0.29289 1.0606,0 l 0.2084,0.20834 c 0.6353,0.63529 1.1651,1.16507 1.5291,1.64219 0.3843,0.5036 0.6538,1.0357 0.6538,1.6798 0,0.6441 -0.2695,1.1762 -0.6538,1.6798 -0.364,0.4771 -0.8938,1.0069 -1.5291,1.6422 l -0.2084,0.2083 c -0.2929,0.2929 -0.7677,0.2929 -1.0606,0 -0.2929,-0.2929 -0.2929,-0.7677 0,-1.0606 l 0.1715,-0.1716 c 0.6817,-0.6817 1.1385,-1.1407 1.4341,-1.5282 0.2824,-0.3701 0.3463,-0.5856 0.3463,-0.7699 0,-0.1843 -0.0639,-0.3998 -0.3463,-0.7699 -0.2956,-0.3875 -0.7524,-0.8465 -1.4341,-1.52819 L 14.9697,9.53033 c -0.2929,-0.29289 -0.2929,-0.76776 0,-1.06066 z m -6.99984,0 c 0.29289,-0.29289 0.76776,-0.29289 1.06066,0 0.29289,0.2929 0.29289,0.76777 0,1.06066 L 8.85894,9.70191 C 8.17729,10.3836 7.72052,10.8426 7.42488,11.2301 7.14245,11.6002 7.07861,11.8157 7.07861,12 c 0,0.1843 0.06384,0.3998 0.34627,0.7699 0.29564,0.3875 0.75241,0.8465 1.43406,1.5282 l 0.17158,0.1716 c 0.29289,0.2929 0.29289,0.7677 0,1.0606 -0.2929,0.2929 -0.76777,0.2929 -1.06066,0 L 7.76151,15.322 C 7.12617,14.6867 6.59638,14.1569 6.23235,13.6798 5.84811,13.1762 5.57861,12.6441 5.57861,12 c 0,-0.6441 0.2695,-1.1762 0.65374,-1.6798 C 6.59638,9.84308 7.12617,9.31331 7.76151,8.67801 Z"
        id="path1"
      />
    </g>
  </g>
</svg>
