<svg width="15.522219mm" height="11.288878mm" viewBox="0 0 15.522219 11.288878" version="1.1" xml:space="preserve" xmlns="http://www.w3.org/2000/svg" xmlns:svg="http://www.w3.org/2000/svg">
  <style>
    .discord-bot {
      fill: #617aff;
    }

    @media (prefers-color-scheme: dark) {
      .discord-bot {
        fill: #8c9eff;
      }
    }
  </style>
  <g transform="translate(-97.411829,-142.85556)">
    <path class="discord-bot" d="m 110.81739,144.26667 c 0,0 -1.61749,-1.26577 -3.52778,-1.41111 l -0.17216,0.34431 c 1.7272,0.42262 2.51954,1.02834 3.34716,1.77235 -1.42699,-0.72848 -2.83598,-1.41111 -5.29167,-1.41111 -2.45569,0 -3.86468,0.68263 -5.291666,1.41111 0.827616,-0.74401 1.770236,-1.4164 3.347156,-1.77235 l -0.17216,-0.34431 c -2.00413,0.18944 -3.527773,1.41111 -3.527773,1.41111 0,0 -1.806575,2.61937 -2.116667,7.76111 1.821039,2.10008 4.58611,2.11666 4.58611,2.11666 l 0.5782,-0.77081 c -0.98142,-0.34114 -2.08985,-0.95039 -3.047643,-2.05141 1.142293,0.86431 2.866323,1.76389 5.644443,1.76389 2.77813,0 4.50215,-0.89958 5.64445,-1.76389 -0.9578,1.10102 -2.06622,1.71027 -3.04765,2.05141 l 0.5782,0.77081 c 0,0 2.76507,-0.0166 4.58611,-2.11666 -0.31009,-5.14174 -2.11666,-7.76111 -2.11666,-7.76111 z m -7.9375,6.35 c -0.68192,0 -1.23473,-0.63183 -1.23473,-1.41111 0,-0.77929 0.55281,-1.41112 1.23473,-1.41112 0.68191,0 1.23472,0.63183 1.23472,1.41112 0,0.77928 -0.55281,1.41111 -1.23472,1.41111 z m 4.58611,0 c -0.68192,0 -1.23473,-0.63183 -1.23473,-1.41111 0,-0.77929 0.55281,-1.41112 1.23473,-1.41112 0.68192,0 1.23472,0.63183 1.23472,1.41112 0,0.77928 -0.5528,1.41111 -1.23472,1.41111 z" style="stroke-width:0.352778" />
  </g>
</svg>
