<svg height="800px" width="800px" version="1.1" id="_x32_" xmlns="http://www.w3.org/2000/svg" xmlns:xlink="http://www.w3.org/1999/xlink" viewBox="0 0 512 512"  xml:space="preserve">
	<style>
		.football-boot {
			fill: #242424;
		}

		@media (prefers-color-scheme: dark) {
			.football-boot {
				fill: #ccb430;
			}
		}
	</style>
	<g>
		<path class="football-boot" d="M392.08,216.693c-0.489,0.91-0.971,1.837-1.74,2.616l-22.262,22.254c-4.216,4.225-11.057,4.225-15.282,0
			c-4.225-4.216-4.225-11.057,0-15.282l15.903-15.911c-8.091-2.528-16.41-5.45-24.834-8.686c-0.131,0.14-0.175,0.323-0.306,0.454
			l-25.429,25.429c-4.225,4.216-11.066,4.216-15.291,0c-4.225-4.234-4.225-11.065,0-15.299l19.411-19.411
			c-8.634-3.717-17.18-7.61-25.473-11.582c-0.534,1.234-1.268,2.406-2.274,3.421l-25.429,25.42c-4.216,4.224-11.066,4.224-15.291,0
			c-4.216-4.225-4.216-11.066,0-15.282l23.304-23.312c-22.481-11.512-41.524-22.551-52.363-29.786
			c-26.811-17.88-31.92-8.931-43.414-1.277c-11.494,7.654-38.306,41.586-80.442,41.586c-37.028,0-49.738-12.702-63.84-28.806
			C19.148,132.813,0,138.193,0,166.561c0,16.594,0,132.542,0,155.53c0,20.88,8.512,35.392,38.76,37.885l1.006,12.308
			c0.385,4.74,4.348,8.398,9.106,8.398h15.176c4.75,0,8.722-3.658,9.106-8.398l1.085-13.323c10.48-1.084,21.064-2.642,32.83-4.224
			l1.067,13.069c0.385,4.74,4.357,8.398,9.106,8.398h15.178c4.749,0,8.721-3.658,9.106-8.398l1.39-17.05
			c11.013-0.909,23.172-1.61,37.116-1.88c1.977-0.044,3.91-0.018,5.817,0.026l1.548,18.904c0.385,4.74,4.356,8.398,9.106,8.398
			h15.177c4.758,0,8.721-3.658,9.106-8.398l1.164-14.181c11.643,2.266,24.476,4.89,40.623,6.841l0.962,11.818
			c0.385,4.74,4.356,8.398,9.106,8.398h15.177c4.758,0,8.721-3.658,9.106-8.398l0.752-9.212c12.325,0.385,26.242,0.324,42.154-0.402
			l0.788,9.614c0.385,4.74,4.356,8.398,9.106,8.398h15.177c4.749,0,8.721-3.658,9.106-8.398l0.997-12.204
			c12.001-1.215,23.102-2.781,33.24-4.714l0.743,9.08c0.385,4.74,4.357,8.398,9.106,8.398h15.177c4.758,0,8.721-3.657,9.106-8.398
			l1.496-18.344C494.995,328.451,512,299.549,512,272.293C512,235.597,451.074,230.532,392.08,216.693z M63.27,220.306
			c-11.94,0-46.283,0-46.283,0s0-44.779,0-50.01c0-5.23,5.231-8.966,11.95-2.991c3,2.668,27.608,25.384,37.316,29.863
			C75.963,201.647,75.21,220.306,63.27,220.306z M137.275,314.359l-56.09-76.138h31.351l56.09,76.138H137.275z M201.044,314.359
			l-56.089-76.138h31.351l56.089,76.138H201.044z M268.225,314.359l-56.089-76.138h31.351l56.089,76.138H268.225z"/>
	</g>
</svg>